<svg width="20" height="21" viewBox="0 0 20 21" fill="none" xmlns="http://www.w3.org/2000/svg">
<g clip-path="url(#clip0_11832_153094)">
<path d="M3.04266 11.025L3.79475 10.635L3.08985 10.1651C2.29383 9.63438 1.75 8.66679 1.75 7.58109C1.75 5.79473 3.21364 4.33109 5 4.33109C6.78636 4.33109 8.25 5.79473 8.25 7.58109C8.25 8.66514 7.70564 9.64971 6.94109 10.2504L6.30169 10.7528L7.03856 11.0967C7.87044 11.4849 8.54766 12.1566 9.00338 12.9542L9.4375 13.7139L9.87162 12.9542C10.3273 12.1566 11.0046 11.4849 11.8364 11.0967L12.6421 10.7207L11.9024 10.2276C11.1063 9.69688 10.5625 8.72929 10.5625 7.64359C10.5625 5.85723 12.0261 4.39359 13.8125 4.39359C15.5989 4.39359 17.0625 5.85723 17.0625 7.64359V7.87614C17.0369 7.93325 17.0218 7.98803 17.0128 8.03656C16.9518 8.1584 16.94 8.27258 16.9379 8.34239C16.9363 8.34735 16.9343 8.35329 16.9319 8.36047L16.9307 8.36411C16.9267 8.37607 16.9211 8.39272 16.9153 8.41141C16.9013 8.43163 16.8866 8.45541 16.8731 8.48248C16.8355 8.55771 16.8213 8.62782 16.816 8.68172C16.8145 8.69674 16.8136 8.71176 16.8131 8.72503C16.7851 8.75983 16.7639 8.79471 16.7481 8.82623C16.7299 8.86257 16.7176 8.89702 16.7091 8.92709C16.2129 10.0392 15.0889 10.8311 13.75 10.8311H13.625H13.6172L13.6094 10.8313C11.5068 10.897 9.776 12.5386 9.52997 14.5811H9.22059C8.97138 12.476 7.16956 10.8311 5 10.8311C2.83044 10.8311 1.02862 12.476 0.779414 14.5811H0.528147C0.700878 13.0563 1.65596 11.744 3.04266 11.025ZM17.7286 14.0596L18.3125 13.4757L18.4804 13.6436L17.8964 14.2275L17.6416 14.4824L17.8028 14.8047C17.9987 15.1965 18.1465 15.5016 18.1943 15.7883L18.2639 16.2061H18.6875H19.5V16.4561H18.5625H18.1289L18.0675 16.8854C18.0124 17.2714 17.9093 17.5503 17.7346 17.7687L17.455 18.1182L17.7714 18.4346L18.3554 19.0186L18.1875 19.1865L17.6036 18.6025L17.3275 18.3265L16.9928 18.5273C16.6957 18.7056 16.3859 18.8536 16.1053 18.9004L15.6875 18.97V19.3936V20.2061H15.4375V19.3936V18.97L15.0197 18.9004C14.7391 18.8536 14.4293 18.7056 14.1322 18.5273L13.7975 18.3265L13.5214 18.6025L12.9375 19.1865L12.7696 19.0186L13.3536 18.4346L13.6084 18.1798L13.4472 17.8575C13.2513 17.4657 13.1035 17.1606 13.0557 16.8739L12.9861 16.4561H12.5625H11.75V16.2061H12.6875H13.1211L13.1825 15.7768C13.2376 15.3908 13.3407 15.1119 13.5154 14.8934L13.795 14.544L13.4786 14.2275L12.8946 13.6436L13.0625 13.4757L13.6464 14.0596L13.9225 14.3357L14.2572 14.1348C14.5543 13.9566 14.8641 13.8085 15.1447 13.7618L15.5625 13.6921V13.2686V12.4561H15.8125V13.2686V13.6921L16.2303 13.7618C16.5109 13.8085 16.8207 13.9566 17.1178 14.1348L17.4525 14.3357L17.7286 14.0596ZM15.6103 16.2114L15.6122 16.2105C15.6164 16.2085 15.6209 16.2071 15.6255 16.2065C15.6285 16.2072 15.6344 16.2088 15.643 16.2129C15.66 16.2208 15.6809 16.2347 15.7011 16.255C15.7213 16.2752 15.7353 16.2961 15.7432 16.313C15.7475 16.3223 15.7491 16.3283 15.7497 16.3311C15.7491 16.3338 15.7475 16.3399 15.7432 16.3491C15.7353 16.3661 15.7213 16.387 15.7011 16.4072C15.6809 16.4274 15.66 16.4414 15.643 16.4493C15.6344 16.4533 15.6285 16.455 15.6255 16.4557C15.6209 16.4551 15.6164 16.4537 15.6122 16.4517L15.6122 16.4517L15.6083 16.4498C15.5895 16.441 15.5688 16.4267 15.5511 16.4088L15.5511 16.4088L15.5473 16.405C15.5294 16.3873 15.5151 16.3666 15.5062 16.3477C15.5025 16.3399 15.501 16.3345 15.5004 16.3317C15.501 16.3271 15.5024 16.3226 15.5044 16.3183L15.5053 16.3164C15.5158 16.2943 15.5301 16.2742 15.5475 16.257L15.5475 16.257L15.5509 16.2535C15.5681 16.2362 15.5882 16.2219 15.6103 16.2114ZM8 7.58109C8 5.92994 6.65114 4.58109 5 4.58109C3.34886 4.58109 2 5.92994 2 7.58109C2 9.23223 3.34886 10.5811 5 10.5811C6.65114 10.5811 8 9.23223 8 7.58109ZM16.75 7.58109C16.75 5.92994 15.4011 4.58109 13.75 4.58109C12.0989 4.58109 10.75 5.92994 10.75 7.58109C10.75 9.23223 12.0989 10.5811 13.75 10.5811C15.4011 10.5811 16.75 9.23223 16.75 7.58109ZM18 16.3311C18 14.9924 16.9636 13.9561 15.625 13.9561C14.2864 13.9561 13.25 14.9924 13.25 16.3311C13.25 17.6697 14.2864 18.7061 15.625 18.7061C16.9636 18.7061 18 17.6697 18 16.3311Z" fill="#DDDDDD" fill-opacity="0.7" stroke="#C5C8CC"/>
</g>
<defs>
<clipPath id="clip0_11832_153094">
<rect width="20" height="20" fill="white" transform="translate(0 0.706085)"/>
</clipPath>
</defs>
</svg>
