<svg width="25" height="25" viewBox="0 0 22 25" fill="none" xmlns="http://www.w3.org/2000/svg">
<path fill-rule="evenodd" clip-rule="evenodd" d="M11.4055 0.5C11.5642 1.56342 11.1285 2.60408 10.5539 3.34083C9.93846 4.13067 8.87855 4.742 7.8548 4.70992C7.66813 3.692 8.14821 2.64492 8.7298 1.93908C9.37088 1.16092 10.4675 0.564167 11.4055 0.5ZM14.3216 16.1724C14.8513 15.3674 15.0479 14.9614 15.4591 14.0503C12.4736 12.9215 11.9935 8.70225 14.9487 7.08234C14.0463 5.95825 12.7805 5.30784 11.5858 5.30784C10.7233 5.30784 10.1326 5.5313 9.5957 5.7344C9.14853 5.90356 8.73872 6.05859 8.24037 6.05859C7.70192 6.05859 7.22487 5.88854 6.72521 5.71043C6.17581 5.51459 5.59906 5.309 4.88329 5.309C3.54046 5.309 2.11246 6.12392 1.20713 7.51809C-0.0662915 9.47867 0.149542 13.1677 2.21454 16.3107C2.95304 17.4353 3.93887 18.6994 5.22921 18.7111C5.76352 18.7163 6.11925 18.5578 6.50435 18.3862C6.9454 18.1897 7.42499 17.9761 8.25554 17.9714C9.09123 17.9667 9.56302 18.1827 9.99839 18.382C10.3735 18.5537 10.7216 18.713 11.2521 18.7082C12.5425 18.6965 13.5837 17.2965 14.3216 16.1724Z" fill="black"/>
</svg>
