<svg width="20" height="21" viewBox="0 0 20 21" fill="none" xmlns="http://www.w3.org/2000/svg">
<path d="M0.833252 8.53943C0.55711 8.53943 0.333252 8.76329 0.333252 9.03943C0.333252 9.31557 0.55711 9.53943 0.833252 9.53943V8.53943ZM19.1666 9.53943C19.4427 9.53943 19.6666 9.31557 19.6666 9.03943C19.6666 8.76329 19.4427 8.53943 19.1666 8.53943V9.53943ZM2.49992 4.53943H17.4999V3.53943H2.49992V4.53943ZM17.4999 4.53943C18.1442 4.53943 18.6666 5.06176 18.6666 5.7061H19.6666C19.6666 4.50948 18.6965 3.53943 17.4999 3.53943V4.53943ZM18.6666 5.7061V15.7061H19.6666V5.7061H18.6666ZM18.6666 15.7061C18.6666 16.3504 18.1442 16.8728 17.4999 16.8728V17.8728C18.6965 17.8728 19.6666 16.9027 19.6666 15.7061H18.6666ZM17.4999 16.8728H2.49992V17.8728H17.4999V16.8728ZM2.49992 16.8728C1.85559 16.8728 1.33325 16.3504 1.33325 15.7061H0.333252C0.333252 16.9027 1.3033 17.8728 2.49992 17.8728V16.8728ZM1.33325 15.7061V5.7061H0.333252V15.7061H1.33325ZM1.33325 5.7061C1.33325 5.06176 1.85559 4.53943 2.49992 4.53943V3.53943C1.3033 3.53943 0.333252 4.50948 0.333252 5.7061H1.33325ZM0.833252 9.53943H19.1666V8.53943H0.833252V9.53943Z" fill="#C5C8CC"/>
</svg>
