<svg width="25" height="25" viewBox="0 0 25 25" fill="none" xmlns="http://www.w3.org/2000/svg">
<circle cx="12.5" cy="12.5" r="12.5" fill="#EFEFFF"/>
<path d="M18.7317 13.7833C18.765 13.5333 18.7817 13.275 18.7817 13C18.7817 12.7333 18.765 12.4667 18.7233 12.2167L20.415 10.9C20.565 10.7833 20.6067 10.5583 20.515 10.3917L18.915 7.625C18.815 7.44167 18.6067 7.38333 18.4233 7.44167L16.4317 8.24167C16.015 7.925 15.5733 7.65833 15.0817 7.45833L14.7817 5.34167C14.7483 5.14167 14.5817 5 14.3817 5H11.1817C10.9817 5 10.8233 5.14167 10.79 5.34167L10.49 7.45833C9.99833 7.65833 9.54833 7.93333 9.14 8.24167L7.14833 7.44167C6.965 7.375 6.75667 7.44167 6.65667 7.625L5.065 10.3917C4.965 10.5667 4.99833 10.7833 5.165 10.9L6.85667 12.2167C6.815 12.4667 6.78167 12.7417 6.78167 13C6.78167 13.2583 6.79833 13.5333 6.84 13.7833L5.14833 15.1C4.99833 15.2167 4.95667 15.4417 5.04833 15.6083L6.64833 18.375C6.74833 18.5583 6.95667 18.6167 7.14 18.5583L9.13167 17.7583C9.54833 18.075 9.99 18.3417 10.4817 18.5417L10.7817 20.6583C10.8233 20.8583 10.9817 21 11.1817 21H14.3817C14.5817 21 14.7483 20.8583 14.7733 20.6583L15.0733 18.5417C15.565 18.3417 16.015 18.075 16.4233 17.7583L18.415 18.5583C18.5983 18.625 18.8067 18.5583 18.9067 18.375L20.5067 15.6083C20.6067 15.425 20.565 15.2167 20.4067 15.1L18.7317 13.7833ZM12.7817 16C11.1317 16 9.78167 14.65 9.78167 13C9.78167 11.35 11.1317 10 12.7817 10C14.4317 10 15.7817 11.35 15.7817 13C15.7817 14.65 14.4317 16 12.7817 16Z" fill="#C5C8CC"/>
</svg>
