<svg width="28" height="31" viewBox="0 0 28 31" fill="none" xmlns="http://www.w3.org/2000/svg">
<g filter="url(#filter0_d_11880_50481)">
<path fill-rule="evenodd" clip-rule="evenodd" d="M22.4 14.199C22.4 13.5785 22.3443 12.9819 22.2409 12.4092H14V15.7938H18.7091C18.5063 16.8876 17.8898 17.8143 16.9631 18.4348V20.6302H19.7909C21.4455 19.1069 22.4 16.8637 22.4 14.199Z" fill="#4285F4"/>
<path fill-rule="evenodd" clip-rule="evenodd" d="M14 22.75C16.3625 22.75 18.3432 21.9665 19.7909 20.6301L16.9631 18.4346C16.1795 18.9596 15.1773 19.2699 14 19.2699C11.721 19.2699 9.79203 17.7307 9.10396 15.6625H6.18066V17.9295C7.62044 20.7892 10.5795 22.75 14 22.75Z" fill="#34A853"/>
<path fill-rule="evenodd" clip-rule="evenodd" d="M9.10398 15.6626C8.92898 15.1376 8.82955 14.5768 8.82955 14.0001C8.82955 13.4234 8.92898 12.8626 9.10398 12.3376V10.0706H6.18068C5.58807 11.2518 5.25 12.5882 5.25 14.0001C5.25 15.412 5.58807 16.7484 6.18068 17.9297L9.10398 15.6626Z" fill="#FBBC05"/>
<path fill-rule="evenodd" clip-rule="evenodd" d="M14 8.73012C15.2847 8.73012 16.4381 9.1716 17.3449 10.0386L19.8546 7.52898C18.3392 6.11705 16.3585 5.25 14 5.25C10.5795 5.25 7.62044 7.2108 6.18066 10.0705L9.10396 12.3375C9.79203 10.2693 11.721 8.73012 14 8.73012Z" fill="#EA4335"/>
</g>
<defs>
<filter id="filter0_d_11880_50481" x="-4" y="0" width="36" height="36" filterUnits="userSpaceOnUse" color-interpolation-filters="sRGB">
<feFlood flood-opacity="0" result="BackgroundImageFix"/>
<feColorMatrix in="SourceAlpha" type="matrix" values="0 0 0 0 0 0 0 0 0 0 0 0 0 0 0 0 0 0 127 0" result="hardAlpha"/>
<feOffset dy="4"/>
<feGaussianBlur stdDeviation="2"/>
<feComposite in2="hardAlpha" operator="out"/>
<feColorMatrix type="matrix" values="0 0 0 0 0 0 0 0 0 0 0 0 0 0 0 0 0 0 0.25 0"/>
<feBlend mode="normal" in2="BackgroundImageFix" result="effect1_dropShadow_11880_50481"/>
<feBlend mode="normal" in="SourceGraphic" in2="effect1_dropShadow_11880_50481" result="shape"/>
</filter>
</defs>
</svg>
