<svg width="20" height="21" viewBox="0 0 20 21" fill="none" xmlns="http://www.w3.org/2000/svg">
<path d="M7.875 2.20605H1.5V8.58105H7.875V2.20605ZM6.8125 7.51855H2.5625V3.26855H6.8125V7.51855Z" fill="#C5C8CC"/>
<path d="M3.625 4.33105H5.75V6.45605H3.625V4.33105ZM1.5 19.2061H7.875V12.8311H1.5V19.2061ZM2.5625 13.8936H6.8125V18.1436H2.5625V13.8936Z" fill="#C5C8CC"/>
<path d="M3.625 14.9561H5.75V17.0811H3.625V14.9561ZM12.125 2.20605V8.58105H18.5V2.20605H12.125ZM17.4375 7.51855H13.1875V3.26855H17.4375V7.51855Z" fill="#C5C8CC"/>
<path d="M14.25 4.33105H16.375V6.45605H14.25V4.33105ZM3.625 9.64355H1.5V11.7686H4.6875V10.7061H3.625V9.64355ZM8.9375 11.7686H11.0625V13.8936H8.9375V11.7686ZM4.6875 9.64355H6.8125V10.7061H4.6875V9.64355ZM11.0625 14.9561H8.9375V16.0186H10V17.0811H11.0625V14.9561ZM7.875 9.64355V10.7061H6.8125V11.7686H8.9375V9.64355H7.875ZM10 6.45605H11.0625V8.58105H10V6.45605ZM11.0625 10.7061V11.7686H13.1875V9.64355H10V10.7061H11.0625ZM8.9375 8.58105H10V9.64355H8.9375V8.58105ZM11.0625 17.0811H13.1875V19.2061H11.0625V17.0811ZM8.9375 17.0811H10V19.2061H8.9375V17.0811ZM11.0625 13.8936H12.125V14.9561H11.0625V13.8936ZM11.0625 5.39355V3.26855H10V2.20605H8.9375V6.45605H10V5.39355H11.0625ZM14.25 17.0811H15.3125V19.2061H14.25V17.0811ZM14.25 14.9561H16.375V16.0186H14.25V14.9561ZM13.1875 16.0186H14.25V17.0811H13.1875V16.0186ZM12.125 14.9561H13.1875V16.0186H12.125V14.9561ZM16.375 12.8311V13.8936H17.4375V14.9561H18.5V12.8311H16.375ZM17.4375 16.0186H16.375V19.2061H18.5V17.0811H17.4375V16.0186ZM12.125 12.8311V13.8936H15.3125V11.7686H13.1875V12.8311H12.125ZM14.25 9.64355V10.7061H16.375V11.7686H18.5V9.64355H14.25Z" fill="#C5C8CC"/>
</svg>
