<svg width="20" height="21" viewBox="0 0 20 21" fill="none" xmlns="http://www.w3.org/2000/svg">
<path d="M15 14.8727H5V13.2061H15V14.8727ZM15 11.5394H5V9.87274H15V11.5394ZM15 8.20608H5V6.53941H15V8.20608ZM2.5 19.0394L3.75 17.7894L5 19.0394L6.25 17.7894L7.5 19.0394L8.75 17.7894L10 19.0394L11.25 17.7894L12.5 19.0394L13.75 17.7894L15 19.0394L16.25 17.7894L17.5 19.0394V2.37274L16.25 3.62274L15 2.37274L13.75 3.62274L12.5 2.37274L11.25 3.62274L10 2.37274L8.75 3.62274L7.5 2.37274L6.25 3.62274L5 2.37274L3.75 3.62274L2.5 2.37274V19.0394Z" fill="#C5C8CC"/>
</svg>
