<svg width="20" height="21" viewBox="0 0 20 21" fill="none" xmlns="http://www.w3.org/2000/svg">
<path d="M2.67375 13.2005C2.67373 13.2005 2.67372 13.2006 2.6737 13.2006M2.67375 13.2005L2.67357 13.2007L2.6737 13.2006M2.67375 13.2005L2.6737 13.2006M2.67375 13.2005L2.6737 13.2006M15.4543 11.4232L15.4166 11.7061L15.6409 11.8824L17.2458 13.144L15.7304 15.7645L13.828 15.0004L13.5618 14.8935L13.3352 15.0692C12.9601 15.3601 12.5495 15.603 12.1032 15.7845L11.8369 15.8928L11.7965 16.1775L11.509 18.206H8.48248L8.19498 16.1775L8.15464 15.8928L7.88833 15.7845C7.44454 15.604 7.04083 15.3614 6.65247 15.0662L6.4267 14.8947L6.16356 15.0004L4.26116 15.7645L2.7459 13.1444L4.36537 11.8839L4.60043 11.7009L4.55146 11.4071C4.51553 11.1915 4.49993 10.9453 4.49993 10.706C4.49993 10.4867 4.5286 10.242 4.56813 10.0049L4.61709 9.71104L4.38203 9.52809L2.7624 8.26749L4.26965 5.64755L6.1719 6.41163L6.43408 6.51694L6.65956 6.34668C7.0417 6.05813 7.45405 5.80752 7.89666 5.62747L8.16297 5.51915L8.20331 5.23449L8.49082 3.20599H11.5174L11.8049 5.23449L11.8452 5.51915L12.1115 5.62747C12.5553 5.808 12.959 6.05059 13.3474 6.34574L13.5732 6.51733L13.8363 6.41163L15.7387 5.64748L17.254 8.26762L15.6345 9.52809L15.3994 9.71104L15.4484 10.0049C15.4844 10.2208 15.4999 10.4588 15.4999 10.706C15.4999 10.9605 15.4845 11.1967 15.4543 11.4232ZM6.49993 10.706C6.49993 12.6321 8.07379 14.206 9.99993 14.206C11.9261 14.206 13.4999 12.6321 13.4999 10.706C13.4999 8.77985 11.9261 7.20599 9.99993 7.20599C8.07379 7.20599 6.49993 8.77985 6.49993 10.706Z" stroke="#C5C8CC"/>
</svg>
