<svg width="14" height="16" viewBox="0 0 14 16" fill="none" xmlns="http://www.w3.org/2000/svg">
<path d="M6.87436 0C5.38251 0 3.95177 0.592632 2.89688 1.64752C1.84199 2.70242 1.24936 4.13316 1.24936 5.625V8.62625L0.0443554 11.6437C0.00661398 11.7385 -0.00735961 11.8411 0.00365403 11.9425C0.0146677 12.0439 0.0503338 12.1411 0.10754 12.2255C0.164745 12.31 0.241752 12.3791 0.331838 12.427C0.421924 12.4748 0.522352 12.4999 0.624355 12.5H13.1244C13.2264 12.4999 13.3268 12.4748 13.4169 12.427C13.507 12.3791 13.584 12.31 13.6412 12.2255C13.6984 12.1411 13.734 12.0439 13.7451 11.9425C13.7561 11.8411 13.7421 11.7385 13.7044 11.6437L12.4994 8.625V5.625C12.4994 4.13316 11.9067 2.70242 10.8518 1.64752C9.79694 0.592632 8.3662 0 6.87436 0ZM6.87436 15.625C6.32001 15.6251 5.78133 15.441 5.34304 15.1016C4.90475 14.7622 4.59169 14.2867 4.45311 13.75H9.29561C9.15702 14.2867 8.84396 14.7622 8.40567 15.1016C7.96738 15.441 7.4287 15.6251 6.87436 15.625Z" fill="#C5C8CC"/>
</svg>
