<svg width="20" height="21" viewBox="0 0 20 21" fill="none" xmlns="http://www.w3.org/2000/svg">
<g clip-path="url(#clip0_11832_153104)">
<path d="M14.1666 18.2061V16.5394C14.1666 15.6553 13.8154 14.8075 13.1903 14.1824C12.5652 13.5572 11.7173 13.2061 10.8333 13.2061H4.16659C3.28253 13.2061 2.43468 13.5572 1.80956 14.1824C1.18444 14.8075 0.833252 15.6553 0.833252 16.5394V18.2061" stroke="#C5C8CC" stroke-width="2" stroke-linecap="round" stroke-linejoin="round"/>
<path d="M7.50008 9.87272C9.34103 9.87272 10.8334 8.38034 10.8334 6.53939C10.8334 4.69844 9.34103 3.20605 7.50008 3.20605C5.65913 3.20605 4.16675 4.69844 4.16675 6.53939C4.16675 8.38034 5.65913 9.87272 7.50008 9.87272Z" stroke="#C5C8CC" stroke-width="2" stroke-linecap="round" stroke-linejoin="round"/>
<path d="M19.1667 18.2061V16.5394C19.1662 15.8008 18.9204 15.0834 18.4679 14.4997C18.0154 13.9159 17.3819 13.499 16.6667 13.3144" stroke="#C5C8CC" stroke-width="2" stroke-linecap="round" stroke-linejoin="round"/>
<path d="M13.3333 3.31439C14.0503 3.49798 14.6858 3.91498 15.1396 4.49965C15.5935 5.08433 15.8398 5.80342 15.8398 6.54356C15.8398 7.2837 15.5935 8.00279 15.1396 8.58747C14.6858 9.17214 14.0503 9.58914 13.3333 9.77273" stroke="#C5C8CC" stroke-width="2" stroke-linecap="round" stroke-linejoin="round"/>
</g>
<defs>
<clipPath id="clip0_11832_153104">
<rect width="20" height="20" fill="white" transform="translate(0 0.706055)"/>
</clipPath>
</defs>
</svg>
