<svg width="18" height="18" viewBox="0 0 18 18" fill="none" xmlns="http://www.w3.org/2000/svg">
<path d="M1.8202 9.27979L1.73579 9.4464L1.41649 9.28397L2.19569 7.75007L2.51567 7.91293L2.43682 8.06765L2.20702 8.51857L2.66069 8.74289L3.39645 9.10669L3.82992 9.32102L4.05862 8.89495C4.48832 8.09437 5.02176 7.35397 5.64512 6.69291L5.96967 6.34874L5.64397 6.00565L5.09657 5.42901L4.75734 5.07165L4.39505 5.40562L4.25929 5.53077L4.01592 5.26508L5.28272 4.10106L5.52622 4.36708L5.39933 4.48367L5.02691 4.82586L5.37335 5.19434L5.90783 5.76282L6.22941 6.10486L6.591 5.80543C7.19857 5.30231 7.86108 4.86949 8.56589 4.51523L8.99848 4.2978L8.79508 3.85844L8.44692 3.10636L8.24003 2.65943L7.79002 2.85954L7.62011 2.9351L7.47386 2.60585L9.04358 1.90738L9.1901 2.23722L9.03226 2.30774L8.57108 2.51379L8.78182 2.97284L9.14018 3.75348L9.33004 4.16707L9.75962 4.01686C10.8349 3.64086 11.9794 3.42609 13.1755 3.42609H13.6755V2.92609V0.706085H16.7555V16.7061H1.43546V13.6261H2.32947H2.79836L2.82844 13.1582C2.89634 12.1015 3.12647 11.0615 3.51074 10.0748L3.67647 9.64928L3.26765 9.44576L2.48905 9.05816L2.04459 8.8369L1.8202 9.27979ZM14.5355 1.06609H14.0355V1.56609V3.78609H13.1755C7.87503 3.78609 3.55783 7.88597 3.1907 13.0909L3.15296 13.6261H3.68947H15.8955H16.3955V13.1261V1.56609V1.06609H15.8955H14.5355ZM10.2755 8.83393V8.54489L10.025 8.40064C9.8607 8.30602 9.73224 8.1598 9.65957 7.98468C9.58691 7.80957 9.5741 7.61535 9.62313 7.43221C9.67216 7.24906 9.7803 7.08723 9.93075 6.97185C10.0715 6.86392 10.2419 6.80228 10.4185 6.79488L10.4564 6.7948C10.6457 6.79443 10.8298 6.85662 10.9801 6.97169C11.1304 7.08676 11.2385 7.24827 11.2875 7.4311C11.3365 7.61392 11.3237 7.80782 11.2512 7.98264C11.1786 8.15746 11.0503 8.30341 10.8862 8.39777L10.6355 8.54197V8.83121V10.4061V10.9061H11.1355H12.6755V11.2661H10.2755V8.83393ZM2.29546 13.9861H1.79546V14.4861V15.8461V16.3461H2.29546H15.8955H16.3955V15.8461V14.4861V13.9861H15.8955H2.29546Z" fill="#DDDDDD" fill-opacity="0.7" stroke="#C5C8CC"/>
</svg>
